<svg width="1441" height="1023" viewBox="0 0 1441 1023" fill="none" xmlns="http://www.w3.org/2000/svg">
<g clip-path="url(#clip0_4208_715)">
<mask id="mask0_4208_715" style="mask-type:luminance" maskUnits="userSpaceOnUse" x="-601" y="-1" width="2634" height="1024">
<path d="M2032.83 -1H-600.312V1023H2032.83V-1Z" fill="white"/>
</mask>
<g mask="url(#mask0_4208_715)">
<path d="M2032.83 -1H-600.312V1023H2032.83V-1Z" fill="#768997"/>
<path d="M-600.311 50.2C-537.28 50.2 -444.316 131.498 -386.972 255C-337.326 361.898 -382.199 383.146 -386.35 511C-390.519 639.146 -419.594 648.728 -403.63 767C-398.583 804.376 -382.163 817.944 -344.311 822.278C-224.503 835.992 -210.076 826.173 -88.3113 803.096C-64.2473 798.543 -52.6725 785.725 -52.6725 767C-52.6725 746.648 -69.0748 744.691 -88.3113 724.961C-193.875 616.691 -251.548 637.976 -302.272 511C-345.408 403.005 -283.347 383.329 -276.051 255C-268.81 127.329 -327.708 73.3314 -273.198 -1C-233.829 -54.6686 -180.764 -1 -88.3113 -1C39.6887 -1 39.6887 -1 167.689 -1C295.689 -1 295.689 -1 423.689 -1C551.689 -1 551.689 -1 679.689 -1C807.689 -1 807.689 -1 935.689 -1C1063.69 -1 1063.69 -1 1191.69 -1C1319.69 -1 1319.69 -1 1447.69 -1C1464.77 -1 1467.58 -9.81371 1481.83 -1C1595.58 69.4183 1587.25 87.6126 1703.69 157.482C1800.57 215.613 1812.78 197.272 1908.49 255C1940.78 274.474 1942.24 311.887 1959.69 311.887C1972.85 311.887 1950.29 275.187 1969.73 255C2078.29 142.214 2141.05 45.9394 2215.69 45.9394C2264.04 45.9394 2215.69 150.479 2215.69 255C2215.69 383 2215.69 383 2215.69 511C2215.69 639 2215.69 639 2215.69 767C2215.69 895 2279.69 959 2215.69 1023C2151.69 1087 2087.69 1023 1959.69 1023C1831.69 1023 1831.69 1023 1703.69 1023C1675.69 1023 1673.72 1032.16 1647.7 1023C1545.72 987.087 1552.87 955.818 1447.69 932.851C1324.86 906.045 1319.12 916.943 1191.69 923.453C1063.12 930.017 1056.92 924.147 935.689 959C883.757 973.921 896.612 1010.18 845.339 1023C768.612 1042.18 762.523 1023 679.689 1023C575.387 1023 568.95 1039.59 471.104 1023C440.95 1017.9 445.485 979.608 423.689 979.608C405.147 979.608 415.661 1018.72 390.445 1023C287.661 1040.43 279.067 1023 167.689 1023C39.6887 1023 39.6887 1023 -88.3113 1023C-216.311 1023 -216.311 1023 -344.311 1023C-453.349 1023 -460.48 1039.31 -562.387 1023C-588.48 1018.83 -596.398 1008.43 -600.311 982.04C-615.36 880.426 -600.311 874.52 -600.311 767C-600.311 639 -600.311 639 -600.311 511C-600.311 383 -600.311 383 -600.311 255C-600.311 152.6 -643.959 50.2 -600.311 50.2Z" stroke="#E7EAE7" stroke-width="2"/>
<path d="M167.688 168.216C108.808 176.189 73.8645 199.064 71.0851 255C65.3433 370.456 106.029 386.218 150.628 511C154.322 521.331 157.997 525.226 167.688 525.226C184.804 525.226 188.15 522.063 204.26 511C316.15 434.109 323.757 439.576 423.688 349.318C465.471 311.576 487.688 296.783 487.688 255C487.688 225.725 461.412 217.441 423.688 207.219C301.412 174.049 285.101 152.307 167.688 168.216Z" stroke="#E7EAE7" stroke-width="2"/>
<path d="M1191.69 430.159C1151.44 430.159 1129.43 468.065 1129.43 511C1129.43 566.095 1147.44 626.2 1191.69 626.2C1258.01 626.2 1350.59 562.365 1350.59 511C1350.59 464.335 1262.02 430.159 1191.69 430.159Z" stroke="#E7EAE7" stroke-width="2"/>
<path d="M-600.311 135.539C-563.539 135.539 -499.703 179.443 -475.859 255C-440.476 367.165 -480.394 382.982 -481.856 511C-483.301 638.982 -521.354 656.243 -481.674 767C-452.581 848.243 -427.493 870.022 -344.311 895C-230.812 929.103 -201.372 924.001 -88.3113 885.162C-15.0404 860.001 28.3516 828.294 28.3516 767C28.3516 700.44 -27.365 695.814 -88.3113 629.455C-144.924 567.814 -197.971 583.32 -206.766 511C-220.736 396.093 -175.498 381.117 -133.824 255C-116.27 201.917 -109.596 152.6 -88.3113 152.6C-67.5204 152.6 -68.6176 203.654 -49.6736 255C-2.49642 382.854 -24.3662 398.141 43.9493 511C84.3241 577.688 97.1241 612.211 167.689 614.113C287.003 617.331 293.183 530.858 423.689 521.24C549.183 511.987 560.155 580.083 679.689 576.353C723.885 574.963 751.131 547.919 751.131 511C751.131 462.287 711.798 460.184 679.689 405.071C637.211 332.184 657.234 316.129 601.974 255C529.234 174.525 523.108 166.589 423.689 121.88C305.965 68.9611 292.964 98.84 167.689 59.7451C96.0453 37.4 29.851 14.8537 29.851 -1C29.851 -15.5189 98.7699 -1 167.689 -1C295.689 -1 295.689 -1 423.689 -1C551.689 -1 551.689 -1 679.689 -1C807.689 -1 807.689 -1 935.689 -1C1063.69 -1 1063.69 -1 1191.69 -1C1254.26 -1 1267.99 -30.568 1316.84 -1C1395.99 46.9086 1376.96 81.7794 1447.69 153.953C1502.4 209.779 1567.7 200.435 1567.7 255C1567.7 317.153 1523.35 374.753 1447.69 387.407C1335.36 406.186 1315.23 363.142 1191.69 317.885C1134.53 296.947 1139.12 286.214 1086.27 255C1011.12 210.621 1010.15 166.717 935.689 166.717C865.673 166.717 797.302 208.792 797.302 255C797.302 303.128 877.357 294.589 935.689 355.389C1000.16 422.589 995.337 429.574 1042.93 511C1115.66 635.379 1203.98 668.714 1176.33 767C1150.34 859.379 1051.64 822.497 935.689 892.33C839.085 950.497 848.447 973.372 751.222 1023C720.447 1038.71 715.455 1023 679.689 1023C634.651 1023 626.221 1044.71 589.613 1023C498.221 968.783 499.958 871.137 423.689 871.137C358.811 871.137 381.321 979.096 307.318 1023C253.321 1055.04 237.504 1023 167.689 1023C39.6887 1023 39.6887 1023 -88.3113 1023C-216.311 1023 -216.311 1023 -344.311 1023C-413.852 1023 -426.176 1051.21 -483.374 1023C-554.176 988.074 -566.976 969.697 -600.311 896.701C-625.436 841.697 -600.311 831.859 -600.311 767C-600.311 639 -600.311 639 -600.311 511C-600.311 383 -600.311 383 -600.311 255C-600.311 195.279 -625.765 135.539 -600.311 135.539Z" stroke="#E7EAE7" stroke-width="2"/>
<path d="M1223.69 767C1223.69 705.706 1325.01 641.45 1447.69 613.4C1565.01 586.593 1575.98 658.877 1703.69 657.286C1831.98 655.677 1831.73 632.362 1959.69 607C2087.73 581.619 2144.92 511.585 2215.69 555.8C2272.92 591.585 2215.69 661.4 2215.69 767C2215.69 895 2279.69 959 2215.69 1023C2151.69 1087 2087.69 1023 1959.69 1023C1899.46 1023 1892.32 1044.25 1839.22 1023C1764.32 993.048 1779.7 955.599 1703.69 920.6C1583.94 865.469 1575.1 883.498 1447.69 842.721C1335.1 806.698 1223.69 820.358 1223.69 767Z" stroke="#E7EAE7" stroke-width="2"/>
<path d="M423.688 36.5406C359.579 36.5406 295.688 8.58172 295.688 -0.999999C295.688 -10.1977 359.688 -0.999999 423.688 -0.999999C490.724 -0.999999 557.778 -10.216 557.778 -0.999999C557.778 8.56343 490.614 36.5406 423.688 36.5406Z" stroke="#E7EAE7" stroke-width="2"/>
<path d="M935.689 56.3806C861.778 56.3806 790.994 13.8663 790.994 -1C790.994 -14.824 863.332 -1 935.689 -1C1039.7 -1 1143.69 -15.08 1143.69 -1C1143.69 13.6103 1038.13 56.3806 935.689 56.3806Z" stroke="#E7EAE7" stroke-width="2"/>
<path d="M899.977 511C917.293 495.329 919.853 480.883 935.689 480.883C948.086 480.883 949.769 494.049 956.443 511C1006.09 637.098 1055.41 659.754 1048.33 767C1045.02 817.085 993.874 800.408 935.689 825.661C809.554 880.408 800.319 941.482 679.689 927C555.949 912.152 446.966 825.075 446.966 767C446.966 717.848 578.989 769.432 679.689 712.527C805.494 641.432 789.293 611.151 899.977 511Z" stroke="#E7EAE7" stroke-width="2"/>
<path d="M109.357 767C139.474 735.914 129.087 703 167.688 703C279.506 703 397.723 696.253 410.212 767C425.974 856.253 327.103 914.401 224.21 1023C205.832 1042.4 195.958 1023 167.688 1023C39.6885 1023 39.6885 1023 -88.3115 1023C-216.312 1023 -216.312 1023 -344.312 1023C-374.337 1023 -404.362 1034.72 -404.362 1023C-404.362 1007.07 -382.51 974.47 -344.312 967.722C-224.485 946.566 -196.38 1015.03 -88.3115 967.21C30.4542 914.657 11.4736 868.01 109.357 767Z" stroke="#E7EAE7" stroke-width="2"/>
</g>
</g>
<defs>
<clipPath id="clip0_4208_715">
<rect width="2633.14" height="1024" fill="white" transform="translate(-600.312 -1)"/>
</clipPath>
</defs>
</svg>
