<svg width="88" height="88" viewBox="0 0 88 88" fill="none" xmlns="http://www.w3.org/2000/svg">
<path d="M79.9537 36.8188H77.0002V36.6667H44.0002V51.3333H64.7223C61.6992 59.8712 53.5757 66 44.0002 66C31.8507 66 22.0002 56.1495 22.0002 44C22.0002 31.8505 31.8507 22 44.0002 22C49.6083 22 54.7105 24.1157 58.5953 27.5715L68.9665 17.2003C62.4178 11.0972 53.6582 7.33334 44.0002 7.33334C23.751 7.33334 7.3335 23.7508 7.3335 44C7.3335 64.2492 23.751 80.6667 44.0002 80.6667C64.2493 80.6667 80.6668 64.2492 80.6668 44C80.6668 41.5415 80.4138 39.1417 79.9537 36.8188Z" fill="#FFC107"/>
<path d="M11.561 26.9335L23.6079 35.7683C26.8675 27.698 34.7619 22 44 22C49.6082 22 54.7104 24.1157 58.5952 27.5715L68.9664 17.2003C62.4177 11.0972 53.658 7.33334 44 7.33334C29.9164 7.33334 17.7027 15.2845 11.561 26.9335Z" fill="#FF3D00"/>
<path d="M43.9999 80.6662C53.4709 80.6662 62.0766 77.0417 68.5831 71.1475L57.2348 61.5445C53.5534 64.333 48.9774 65.9995 43.9999 65.9995C34.4629 65.9995 26.3651 59.9183 23.3144 51.4318L11.3574 60.6443C17.4258 72.5188 29.7494 80.6662 43.9999 80.6662Z" fill="#4CAF50"/>
<path d="M79.9535 36.8189H77V36.6667H44V51.3334H64.7222C63.2702 55.4345 60.632 58.971 57.2293 61.5469L57.2348 61.5432L68.5832 71.1462C67.7802 71.8759 80.6667 62.3334 80.6667 44C80.6667 41.5415 80.4137 39.1417 79.9535 36.8189Z" fill="#1976D2"/>
</svg>
