<svg width="93" height="106" viewBox="0 0 93 106" fill="none" xmlns="http://www.w3.org/2000/svg">
<path d="M4.51207 95.482C0.247343 85.9908 4.03629 25.2053 17.4661 19.6092C30.8958 14.013 76.3822 15.4668 75.6644 24.1528C74.9466 32.8387 69.7804 83.1223 69.8985 95.482C70.0167 107.842 8.77679 104.973 4.51207 95.482Z" fill="white" stroke="#143951" stroke-width="4"/>
<path d="M33.5625 50.4717C33.5625 50.4717 31.9611 42.2229 34.5491 39.7952C35.3256 37.3907 76.1483 7.96551 76.1483 7.96551C76.1483 7.96551 81.7451 3.2843 84.1466 2.94618C86.548 2.60805 91.0841 9.19834 90.9696 10.9455C90.855 12.6927 84.1466 16.8274 84.1466 16.8274C84.1466 16.8274 45.5792 48.1991 42.9735 48.3542C41.2722 50.4717 33.5625 50.4717 33.5625 50.4717Z" fill="white"/>
<path d="M34.5491 39.7952C31.9611 42.2229 33.5625 50.4717 33.5625 50.4717M34.5491 39.7952C35.3256 37.3907 76.1483 7.96551 76.1483 7.96551M34.5491 39.7952C38.2243 43.4704 42.9735 48.3542 42.9735 48.3542M33.5625 50.4717C33.5625 50.4717 41.2722 50.4717 42.9735 48.3542M33.5625 50.4717C33.5625 50.4717 30.8724 51.8758 30.9745 52.8244M42.9735 48.3542C45.5792 48.1991 84.1466 16.8274 84.1466 16.8274M84.1466 16.8274L76.1483 7.96551M84.1466 16.8274C84.1466 16.8274 90.855 12.6927 90.9696 10.9455C91.0841 9.19834 86.5481 2.60805 84.1466 2.94618C81.7451 3.2843 76.1483 7.96551 76.1483 7.96551" stroke="#143951" stroke-width="4" stroke-linecap="round" stroke-linejoin="round"/>
</svg>
